<svg width="204" height="31" viewBox="0 0 204 31" fill="none" xmlns="http://www.w3.org/2000/svg">
<path d="M0.3125 24L4.26562 1.25L11.25 1.26562C13.7083 1.27604 15.5521 1.8125 16.7812 2.875C18.0208 3.92708 18.5677 5.39062 18.4219 7.26562C18.2344 9.47396 16.8854 11.1354 14.375 12.25C15.3125 12.5833 16.0365 13.1927 16.5469 14.0781C17.0573 14.9635 17.276 16.0208 17.2031 17.25C17.0573 19.3333 16.2188 20.9792 14.6875 22.1875C13.1667 23.3958 11.1562 24 8.65625 24H0.3125ZM5.95312 13.7344L4.71875 20.8438L8.76562 20.8594C9.98438 20.8594 11.0208 20.5365 11.875 19.8906C12.7292 19.2448 13.2344 18.3594 13.3906 17.2344C13.5365 16.1615 13.375 15.3229 12.9062 14.7188C12.4375 14.1146 11.6615 13.7917 10.5781 13.75L5.95312 13.7344ZM6.45312 10.8281L10 10.8438C11.2708 10.8438 12.3073 10.5417 13.1094 9.9375C13.9115 9.33333 14.3854 8.51562 14.5312 7.48438C14.7917 5.53646 13.8073 4.52604 11.5781 4.45312L7.5625 4.4375L6.45312 10.8281ZM27.3594 24.3125C25.8906 24.2812 24.6146 23.9115 23.5312 23.2031C22.4583 22.4948 21.6615 21.526 21.1406 20.2969C20.6302 19.0677 20.4375 17.6979 20.5625 16.1875L20.6094 15.5469C20.7969 13.8281 21.2969 12.2865 22.1094 10.9219C22.9323 9.54688 23.9531 8.50521 25.1719 7.79688C26.3906 7.08854 27.7135 6.75 29.1406 6.78125C31.2552 6.82292 32.8385 7.60938 33.8906 9.14062C34.9531 10.6719 35.3542 12.6667 35.0938 15.125L34.875 16.75H24.2344C24.1406 18.0938 24.4115 19.1771 25.0469 20C25.6823 20.8229 26.5573 21.2448 27.6719 21.2656C29.2656 21.3177 30.7344 20.625 32.0781 19.1875L33.9531 21.1562C33.2448 22.1667 32.3125 22.9531 31.1562 23.5156C30 24.0677 28.7344 24.3333 27.3594 24.3125ZM28.9375 9.8125C26.9792 9.75 25.5104 11.1354 24.5312 13.9688L31.5469 13.9844L31.6094 13.6562C31.6823 13.1771 31.6875 12.7083 31.625 12.25C31.5104 11.5104 31.2188 10.9271 30.75 10.5C30.2812 10.0729 29.6771 9.84375 28.9375 9.8125ZM37.3594 15.5312C37.5573 13.8438 38.0104 12.3177 38.7188 10.9531C39.4375 9.58854 40.3385 8.54688 41.4219 7.82812C42.5052 7.09896 43.7448 6.74479 45.1406 6.76562C46.9948 6.80729 48.3958 7.48958 49.3438 8.8125L49.9219 7.07812L53.2969 7.09375L50.5 23.5312C50.1875 25.7396 49.2552 27.4948 47.7031 28.7969C46.1615 30.1094 44.2812 30.7344 42.0625 30.6719C40.875 30.651 39.75 30.3802 38.6875 29.8594C37.625 29.3385 36.7708 28.651 36.125 27.7969L38.0938 25.5625C39.0833 26.9271 40.375 27.6302 41.9688 27.6719C43.1771 27.7135 44.2135 27.3802 45.0781 26.6719C45.9531 25.974 46.5365 24.974 46.8281 23.6719L47.0938 22.4844C45.7917 23.7448 44.3125 24.3542 42.6562 24.3125C41.0729 24.2917 39.8021 23.6927 38.8438 22.5156C37.8958 21.3385 37.375 19.7552 37.2812 17.7656C37.25 17.1406 37.276 16.3958 37.3594 15.5312ZM41.0312 15.8594C40.9688 16.3906 40.9479 16.9635 40.9688 17.5781C40.9896 18.6823 41.2396 19.5573 41.7188 20.2031C42.1979 20.849 42.8802 21.1875 43.7656 21.2188C45.1719 21.2708 46.401 20.6198 47.4531 19.2656L48.7812 11.7969C48.2396 10.5573 47.276 9.91667 45.8906 9.875C44.6406 9.84375 43.5885 10.3281 42.7344 11.3281C41.8802 12.3281 41.3229 13.7292 41.0625 15.5312L41.0312 15.8594ZM58.2031 24H54.5L57.4375 7.09375H61.1406L58.2031 24ZM57.9688 2.76562C57.9688 2.19271 58.1562 1.70312 58.5312 1.29688C58.9062 0.890625 59.4115 0.677083 60.0469 0.65625C60.651 0.635417 61.151 0.822917 61.5469 1.21875C61.9531 1.60417 62.1562 2.07812 62.1562 2.64062C62.1562 3.23438 61.9583 3.72396 61.5625 4.10938C61.1771 4.49479 60.6823 4.69792 60.0781 4.71875C59.4844 4.73958 58.9844 4.5625 58.5781 4.1875C58.1719 3.80208 57.9688 3.32812 57.9688 2.76562ZM69.7344 21.2969C70.6198 21.3177 71.401 21.0625 72.0781 20.5312C72.7656 19.9896 73.2031 19.2865 73.3906 18.4219L76.8906 18.4062C76.776 19.5208 76.3698 20.5365 75.6719 21.4531C74.9844 22.3698 74.099 23.0833 73.0156 23.5938C71.9323 24.1042 70.8021 24.3438 69.625 24.3125C68.1771 24.2917 66.9427 23.9167 65.9219 23.1875C64.901 22.4583 64.1562 21.4531 63.6875 20.1719C63.2188 18.8802 63.0625 17.4427 63.2188 15.8594L63.2656 15.3125C63.4427 13.6771 63.9167 12.1979 64.6875 10.875C65.4688 9.54167 66.474 8.51562 67.7031 7.79688C68.9323 7.07812 70.2969 6.73958 71.7969 6.78125C73.6302 6.82292 75.0938 7.43229 76.1875 8.60938C77.2812 9.77604 77.8281 11.2969 77.8281 13.1719H74.3594C74.3594 12.2031 74.1198 11.4115 73.6406 10.7969C73.1719 10.1823 72.4896 9.85417 71.5938 9.8125C70.1458 9.77083 69.0052 10.3854 68.1719 11.6562C67.3385 12.9271 66.8906 14.7188 66.8281 17.0312C66.7552 19.8333 67.724 21.2552 69.7344 21.2969ZM84.875 8.95312C86.2812 7.47396 87.8802 6.75521 89.6719 6.79688C91.276 6.81771 92.4635 7.38542 93.2344 8.5C94.0156 9.61458 94.3073 11.1562 94.1094 13.125L92.2969 24H88.5938L90.4375 13.0781C90.4896 12.6302 90.5 12.2135 90.4688 11.8281C90.3333 10.5573 89.5833 9.90625 88.2188 9.875C86.8438 9.85417 85.6146 10.5312 84.5312 11.9062L82.4219 24H78.7188L82.875 0H86.5938L84.875 8.95312ZM104.438 24L108.391 1.25L115.375 1.26562C117.833 1.27604 119.677 1.8125 120.906 2.875C122.146 3.92708 122.693 5.39062 122.547 7.26562C122.359 9.47396 121.01 11.1354 118.5 12.25C119.438 12.5833 120.161 13.1927 120.672 14.0781C121.182 14.9635 121.401 16.0208 121.328 17.25C121.182 19.3333 120.344 20.9792 118.812 22.1875C117.292 23.3958 115.281 24 112.781 24H104.438ZM110.078 13.7344L108.844 20.8438L112.891 20.8594C114.109 20.8594 115.146 20.5365 116 19.8906C116.854 19.2448 117.359 18.3594 117.516 17.2344C117.661 16.1615 117.5 15.3229 117.031 14.7188C116.562 14.1146 115.786 13.7917 114.703 13.75L110.078 13.7344ZM110.578 10.8281L114.125 10.8438C115.396 10.8438 116.432 10.5417 117.234 9.9375C118.036 9.33333 118.51 8.51562 118.656 7.48438C118.917 5.53646 117.932 4.52604 115.703 4.45312L111.688 4.4375L110.578 10.8281ZM133.875 24C133.75 23.5833 133.698 23.0573 133.719 22.4219C132.323 23.724 130.818 24.3542 129.203 24.3125C127.734 24.2917 126.516 23.8229 125.547 22.9062C124.589 21.9792 124.141 20.8073 124.203 19.3906C124.286 17.6094 125.057 16.2083 126.516 15.1875C127.974 14.1667 129.932 13.6562 132.391 13.6562L134.797 13.6875L135.016 12.5312C135.078 12.125 135.078 11.7448 135.016 11.3906C134.807 10.2656 134.062 9.6875 132.781 9.65625C131.99 9.63542 131.292 9.83854 130.688 10.2656C130.094 10.6823 129.729 11.2448 129.594 11.9531L125.891 11.9844C125.964 10.9427 126.333 10.0312 127 9.25C127.667 8.45833 128.552 7.84375 129.656 7.40625C130.76 6.96875 131.927 6.76042 133.156 6.78125C135 6.82292 136.438 7.38021 137.469 8.45312C138.5 9.51562 138.927 10.8958 138.75 12.5938L137.453 20.5156L137.328 21.9219C137.297 22.5365 137.375 23.1354 137.562 23.7188L137.547 24H133.875ZM130.062 21.2812C130.844 21.3021 131.568 21.125 132.234 20.75C132.901 20.3646 133.469 19.8698 133.938 19.2656L134.516 16.0625L132.75 16.0469C131.354 16.0469 130.24 16.3125 129.406 16.8438C128.573 17.3646 128.099 18.0833 127.984 19C127.901 19.6979 128.052 20.25 128.438 20.6562C128.833 21.0521 129.375 21.2604 130.062 21.2812ZM147.156 7.07812L146.781 9.0625C148.229 7.5 149.901 6.73958 151.797 6.78125C153.38 6.8125 154.552 7.38021 155.312 8.48438C156.073 9.57812 156.354 11.1094 156.156 13.0781L154.328 24H150.625L152.469 13.0312C152.521 12.5833 152.526 12.1667 152.484 11.7812C152.349 10.5417 151.609 9.90625 150.266 9.875C148.859 9.85417 147.625 10.5469 146.562 11.9531L144.453 24H140.75L143.672 7.09375L147.156 7.07812ZM164.594 7.07812L164.219 9.0625C165.667 7.5 167.339 6.73958 169.234 6.78125C170.818 6.8125 171.99 7.38021 172.75 8.48438C173.51 9.57812 173.792 11.1094 173.594 13.0781L171.766 24H168.062L169.906 13.0312C169.958 12.5833 169.964 12.1667 169.922 11.7812C169.786 10.5417 169.047 9.90625 167.703 9.875C166.297 9.85417 165.062 10.5469 164 11.9531L161.891 24H158.188L161.109 7.09375L164.594 7.07812ZM183.328 24.3125C181.859 24.2812 180.583 23.9115 179.5 23.2031C178.427 22.4948 177.63 21.526 177.109 20.2969C176.599 19.0677 176.406 17.6979 176.531 16.1875L176.578 15.5469C176.766 13.8281 177.266 12.2865 178.078 10.9219C178.901 9.54688 179.922 8.50521 181.141 7.79688C182.359 7.08854 183.682 6.75 185.109 6.78125C187.224 6.82292 188.807 7.60938 189.859 9.14062C190.922 10.6719 191.323 12.6667 191.062 15.125L190.844 16.75H180.203C180.109 18.0938 180.38 19.1771 181.016 20C181.651 20.8229 182.526 21.2448 183.641 21.2656C185.234 21.3177 186.703 20.625 188.047 19.1875L189.922 21.1562C189.214 22.1667 188.281 22.9531 187.125 23.5156C185.969 24.0677 184.703 24.3333 183.328 24.3125ZM184.906 9.8125C182.948 9.75 181.479 11.1354 180.5 13.9688L187.516 13.9844L187.578 13.6562C187.651 13.1771 187.656 12.7083 187.594 12.25C187.479 11.5104 187.188 10.9271 186.719 10.5C186.25 10.0729 185.646 9.84375 184.906 9.8125ZM203.547 10.5625C203.068 10.4583 202.583 10.4062 202.094 10.4062C200.469 10.3646 199.177 11.0365 198.219 12.4219L196.188 24H192.484L195.406 7.09375L198.922 7.07812L198.547 9C199.703 7.46875 201.036 6.71875 202.547 6.75C202.891 6.75 203.365 6.82812 203.969 6.98438L203.547 10.5625Z" fill="#464646"/>
</svg>
